<?xml version="1.0" encoding="UTF-8" standalone="no"?>
<svg viewBox="0 0 1630 640"
     clip="0 1630 640 0"
     preserveAspectRatio="xMidYMid meet"
     version="1.1"
     baseProfile="full"
     xmlns="http://www.w3.org/2000/svg"
     xmlns:xlink="http://www.w3.org/1999/xlink"
     xmlns:ev="http://www.w3.org/2001/xml-events"
     xml:space="preserve">
<title>Top_Student</title>
<desc>Nlview schematic (SVG)</desc>
<clipPath id="clippingbbox">
<rect x="0" y="0" width="1630" height="640" />
</clipPath>
<g stroke="#19b400"
   stroke-width="1"
   stroke-linecap="butt"
   stroke-linejoin="miter"
   stroke-miterlimit="4"
   stroke-dasharray="none"
   stroke-dashoffset="0"
   fill="none"
   font-family="Helvetica"
   font-style="normal"
   font-size="12"
   writing-mode="lr-tb"
   cursor="crosshair"
   clip-path="url(#clippingbbox)">
<path d="M0 0h1630v641h-1630z" stroke="none" fill="white" />
<g stroke="black">
<path d="M136 60l-7 7h-14v-14h14z" />
<text x="111" y="60" fill="black" stroke-width="0" text-anchor="end" dy="3.85">btnC</text>
<path d="M136 180l-7 7h-14v-14h14z" />
<text x="111" y="180" fill="black" stroke-width="0" text-anchor="end" dy="3.85">CLK100MHZ</text>
</g>
<g stroke="black" stroke-width="3">
<path d="M136 370l-7 7h-14v-14h14z" />
<text x="111" y="370" fill="black" stroke-width="0" text-anchor="end" dy="3.85">sw[6:0]</text>
</g>
<g stroke="black">
<path d="M136 470l-7 7h-14v-14h14z" />
<text x="111" y="470" fill="black" stroke-width="0" text-anchor="end" dy="3.85">J_MIC3_Pin3</text>
<path d="M426 208h60v42h-60z" stroke="none" fill="#dfebf8" />
<path d="M426 208h60v42h-60z" />
</g>
<g stroke="black" stroke-width="3">
<path d="M437 213v12" />
<path d="M431 219h12" />
</g>
<g stroke="black">
<path d="M429 211h16v16h-16z" />
<text x="456" y="206" fill="black" stroke-width="0" text-anchor="middle">clock_single_pulse</text>
<text x="456" y="252" fill="black" stroke-width="0" text-anchor="middle" dy="7.7">Clock_Single_Pulse</text>
<path d="M416 240h10" />
<text x="424" y="239" fill="black" stroke-width="0" font-size="10" text-anchor="end">basys_clock</text>
<path d="M496 240h-10" />
<text x="488" y="239" fill="black" stroke-width="0" font-size="10">clock</text>
<path d="M436 240h-10" />
<path d="M476 240h10" />
<path d="M438 342h60v80h-60z" stroke="none" fill="#fcfc35" />
<path d="M438 342h60v80h-60z" />
<path d="M434 338h60v80h-60z" stroke="none" fill="#fdfd67" />
<path d="M434 338h60v80h-60z" />
<path d="M430 334h60v80h-60z" stroke="none" fill="#fefe99" />
<path d="M430 334h60v80h-60z" />
<path d="M426 330h60v80h-60z" stroke="none" fill="#ffffcc" />
<path d="M426 330h60v80h-60z" />
<path d="M426 353l7 -3l-7 -3" />
<text x="456" y="328" fill="black" stroke-width="0" text-anchor="middle">volume_bar_level_reg[3:0]</text>
<text x="456" y="424" fill="black" stroke-width="0" text-anchor="middle" dy="7.7">RTL_REG</text>
<path d="M416 350h10" />
<text x="435" y="350" fill="black" stroke-width="0" font-size="10" dy="3.25">C</text>
<path d="M416 370h10" />
<text x="428" y="370" fill="black" stroke-width="0" font-size="10" dy="3.25">CE</text>
<path d="M416 390h10" />
<text x="428" y="390" fill="black" stroke-width="0" font-size="10" dy="3.25">D</text>
<text x="424" y="389" fill="black" stroke-width="0" font-size="8" text-anchor="end">n/c</text>
</g>
<g stroke="black" stroke-width="3">
<path d="M496 370h-10" />
<text x="484" y="370" fill="black" stroke-width="0" font-size="10" text-anchor="end" dy="3.25">Q</text>
</g>
<g stroke="black">
<path d="M196 490v-4" />
<path d="M188 486h16" />
<path d="M426 518h60v62h-60z" stroke="none" fill="#dfebf8" />
<path d="M426 518h60v62h-60z" />
</g>
<g stroke="black" stroke-width="3">
<path d="M437 523v12" />
<path d="M431 529h12" />
</g>
<g stroke="black">
<path d="M429 521h16v16h-16z" />
<text x="456" y="516" fill="black" stroke-width="0" text-anchor="middle">clock_20k</text>
<text x="456" y="582" fill="black" stroke-width="0" text-anchor="middle" dy="7.7">Clock_Divider</text>
<path d="M416 550h10" />
<text x="424" y="549" fill="black" stroke-width="0" font-size="10" text-anchor="end">basys_clock</text>
<path d="M496 550h-10" />
<text x="488" y="549" fill="black" stroke-width="0" font-size="10">clock</text>
</g>
<g stroke="black" stroke-width="3">
<path d="M416 570h10" />
<text x="424" y="569" fill="black" stroke-width="0" font-size="10" text-anchor="end">count_max[25:0]</text>
<text x="330" y="569" fill="black" stroke-width="0" font-size="8" text-anchor="end">V=X&quot;00009C3&quot;</text>
</g>
<g stroke="black">
<path d="M436 550h-10" />
<path d="M476 550h10" />
</g>
<g stroke="black" stroke-width="3">
<path d="M436 570h-10" />
</g>
<g stroke="black">
<path d="M188 610h16" />
<path d="M191 613h10" />
<path d="M194 616h4" />
<path d="M876 28h60v62h-60z" stroke="none" fill="#dfebf8" />
<path d="M876 28h60v62h-60z" />
</g>
<g stroke="black" stroke-width="3">
<path d="M887 33v12" />
<path d="M881 39h12" />
</g>
<g stroke="black">
<path d="M879 31h16v16h-16z" />
<text x="906" y="26" fill="black" stroke-width="0" text-anchor="middle">nolabel_line49</text>
<text x="906" y="92" fill="black" stroke-width="0" text-anchor="middle" dy="7.7">Single_Pulse</text>
<path d="M866 60h10" />
<text x="874" y="59" fill="black" stroke-width="0" font-size="10" text-anchor="end">button</text>
<path d="M866 80h10" />
<text x="874" y="79" fill="black" stroke-width="0" font-size="10" text-anchor="end">clock</text>
<path d="M946 60h-10" />
<text x="938" y="59" fill="black" stroke-width="0" font-size="10">out</text>
<path d="M886 60h-10" />
<path d="M886 80h-10" />
<path d="M926 60h10" />
<path d="M646 120v-4" />
<path d="M638 116h16" />
<path d="M876 148h60v62h-60z" stroke="none" fill="#dfebf8" />
<path d="M876 148h60v62h-60z" />
</g>
<g stroke="black" stroke-width="3">
<path d="M887 153v12" />
<path d="M881 159h12" />
</g>
<g stroke="black">
<path d="M879 151h16v16h-16z" />
<text x="906" y="146" fill="black" stroke-width="0" text-anchor="middle">clock_6p25m</text>
<text x="906" y="212" fill="black" stroke-width="0" text-anchor="middle" dy="7.7">Clock_Divider</text>
<path d="M866 180h10" />
<text x="874" y="179" fill="black" stroke-width="0" font-size="10" text-anchor="end">basys_clock</text>
<path d="M946 180h-10" />
<text x="938" y="179" fill="black" stroke-width="0" font-size="10">clock</text>
</g>
<g stroke="black" stroke-width="3">
<path d="M866 200h10" />
<text x="874" y="199" fill="black" stroke-width="0" font-size="10" text-anchor="end">count_max[25:0]</text>
<text x="780" y="199" fill="black" stroke-width="0" font-size="8" text-anchor="end">V=X&quot;0000007&quot;</text>
</g>
<g stroke="black">
<path d="M886 180h-10" />
<path d="M926 180h10" />
</g>
<g stroke="black" stroke-width="3">
<path d="M886 200h-10" />
</g>
<g stroke="black">
<path d="M638 240h16" />
<path d="M641 243h10" />
<path d="M644 246h4" />
<path d="M876 288h60v142h-60z" stroke="none" fill="#dfebf8" />
<path d="M876 288h60v142h-60z" />
</g>
<g stroke="black" stroke-width="3">
<path d="M887 293v12" />
<path d="M881 299h12" />
</g>
<g stroke="black">
<path d="M879 291h16v16h-16z" />
<text x="906" y="286" fill="black" stroke-width="0" text-anchor="middle">draw_oled</text>
<text x="906" y="432" fill="black" stroke-width="0" text-anchor="middle" dy="7.7">Draw_Oled</text>
<path d="M866 320h10" />
<text x="874" y="319" fill="black" stroke-width="0" font-size="10" text-anchor="end">CLK100MHZ</text>
<path d="M866 420h10" />
<text x="874" y="419" fill="black" stroke-width="0" font-size="10" text-anchor="end">volume_bar_sel</text>
</g>
<g stroke="black" stroke-width="3">
<path d="M866 340h10" />
<text x="874" y="339" fill="black" stroke-width="0" font-size="10" text-anchor="end">color_scheme[1:0]</text>
<path d="M946 360h-10" />
<text x="938" y="359" fill="black" stroke-width="0" font-size="10">oled_data[15:0]</text>
<path d="M866 360h10" />
<text x="874" y="359" fill="black" stroke-width="0" font-size="10" text-anchor="end">pixel_index[12:0]</text>
<path d="M866 380h10" />
<text x="874" y="379" fill="black" stroke-width="0" font-size="10" text-anchor="end">thickness_sel[1:0]</text>
<path d="M866 400h10" />
<text x="874" y="399" fill="black" stroke-width="0" font-size="10" text-anchor="end">volume_bar[3:0]</text>
</g>
<g stroke="black">
<path d="M886 320h-10" />
<path d="M886 420h-10" />
</g>
<g stroke="black" stroke-width="3">
<path d="M886 340h-10" />
<path d="M926 360h10" />
<path d="M886 360h-10" />
<path d="M886 380h-10" />
<path d="M886 400h-10" />
<path d="M876 478h60v82h-60z" stroke="none" fill="#dfebf8" />
</g>
<g stroke="black">
<path d="M876 478h60v82h-60z" />
</g>
<g stroke="black" stroke-width="3">
<path d="M887 483v12" />
<path d="M881 489h12" />
</g>
<g stroke="black">
<path d="M879 481h16v16h-16z" />
<text x="906" y="476" fill="black" stroke-width="0" text-anchor="middle">audio_capture</text>
<text x="906" y="562" fill="black" stroke-width="0" text-anchor="middle" dy="7.7">Audio_Capture</text>
<path d="M866 510h10" />
<text x="874" y="509" fill="black" stroke-width="0" font-size="10" text-anchor="end">CLK</text>
<path d="M866 530h10" />
<text x="874" y="529" fill="black" stroke-width="0" font-size="10" text-anchor="end">MISO</text>
<path d="M946 510h-10" />
<text x="938" y="509" fill="black" stroke-width="0" font-size="10">clk_samp</text>
<path d="M866 550h10" />
<text x="874" y="549" fill="black" stroke-width="0" font-size="10" text-anchor="end">cs</text>
<path d="M946 550h-10" />
<text x="938" y="549" fill="black" stroke-width="0" font-size="10">sclk</text>
</g>
<g stroke="black" stroke-width="3">
<path d="M946 530h-10" />
<text x="938" y="529" fill="black" stroke-width="0" font-size="10">sample[11:0]</text>
</g>
<g stroke="black">
<path d="M886 510h-10" />
<path d="M886 530h-10" />
<path d="M926 510h10" />
<path d="M886 550h-10" />
<path d="M926 550h10" />
</g>
<g stroke="black" stroke-width="3">
<path d="M926 530h10" />
<path d="M1256 48h60v182h-60z" stroke="none" fill="#dfebf8" />
</g>
<g stroke="black">
<path d="M1256 48h60v182h-60z" />
</g>
<g stroke="black" stroke-width="3">
<path d="M1267 53v12" />
<path d="M1261 59h12" />
</g>
<g stroke="black">
<path d="M1259 51h16v16h-16z" />
<text x="1286" y="46" fill="black" stroke-width="0" text-anchor="middle">oled_display</text>
<text x="1286" y="232" fill="black" stroke-width="0" text-anchor="middle" dy="7.7">Oled_Display</text>
<path d="M1246 120h10" />
<text x="1254" y="119" fill="black" stroke-width="0" font-size="10" text-anchor="end">clk</text>
<path d="M1326 80h-10" />
<text x="1318" y="79" fill="black" stroke-width="0" font-size="10">cs</text>
<path d="M1326 100h-10" />
<text x="1318" y="99" fill="black" stroke-width="0" font-size="10">d_cn</text>
<path d="M1326 140h-10" />
<text x="1318" y="139" fill="black" stroke-width="0" font-size="10">pmoden</text>
<path d="M1246 160h10" />
<text x="1254" y="159" fill="black" stroke-width="0" font-size="10" text-anchor="end">reset</text>
<path d="M1326 160h-10" />
<text x="1318" y="159" fill="black" stroke-width="0" font-size="10">resn</text>
<path d="M1326 180h-10" />
<text x="1318" y="179" fill="black" stroke-width="0" font-size="10">sclk</text>
<path d="M1326 200h-10" />
<text x="1318" y="199" fill="black" stroke-width="0" font-size="10">sdin</text>
<path d="M1326 220h-10" />
<text x="1318" y="219" fill="black" stroke-width="0" font-size="10">vccen</text>
</g>
<g stroke="black" stroke-width="3">
<path d="M1246 140h10" />
<text x="1254" y="139" fill="black" stroke-width="0" font-size="10" text-anchor="end">pixel_data[15:0]</text>
<path d="M1326 120h-10" />
<text x="1318" y="119" fill="black" stroke-width="0" font-size="10">pixel_index[12:0]</text>
</g>
<g stroke="black">
<path d="M1266 120h-10" />
<path d="M1306 80h10" />
<path d="M1306 100h10" />
<path d="M1306 140h10" />
<path d="M1266 160h-10" />
<path d="M1306 160h10" />
<path d="M1306 180h10" />
<path d="M1306 200h10" />
<path d="M1306 220h10" />
</g>
<g stroke="black" stroke-width="3">
<path d="M1266 140h-10" />
<path d="M1306 120h10" />
<path d="M1256 500l40 15v30l-40 15z" stroke="none" fill="#ffffcc" />
</g>
<g stroke="black">
<path d="M1256 500l40 15v30l-40 15z" />
<text x="1276" y="498" fill="black" stroke-width="0" text-anchor="middle">led_i</text>
<text x="1280" y="554" fill="black" stroke-width="0" dy="7.7">RTL_MUX</text>
<path d="M1276 560v-8" />
<text x="1274" y="560" fill="black" stroke-width="0" font-size="10" text-anchor="end" dy="6.5">S</text>
</g>
<g stroke="black" stroke-width="3">
<path d="M1246 520h10" />
<text x="1254" y="519" fill="black" stroke-width="0" font-size="10" text-anchor="end">I0[11:0]</text>
<text x="1202" y="519" fill="black" stroke-width="0" font-size="8" text-anchor="end">S=1&apos;b1</text>
<path d="M1246 540h10" />
<text x="1254" y="539" fill="black" stroke-width="0" font-size="10" text-anchor="end">I1[11:0]</text>
<text x="1202" y="539" fill="black" stroke-width="0" font-size="8" text-anchor="end">S=default</text>
<path d="M1306 530h-10" />
<text x="1298" y="529" fill="black" stroke-width="0" font-size="10">O[11:0]</text>
</g>
<g stroke="black">
<path d="M1098 600h16" />
<path d="M1101 603h10" />
<path d="M1104 606h4" />
</g>
<g stroke="black" stroke-width="3">
<path d="M1496 80v-7h14l7 7l-7 7h-14z" />
<text x="1521" y="80" fill="black" stroke-width="0" dy="3.85">JX[7:0]</text>
</g>
<g stroke="black">
<path d="M1496 470v-7h14l7 7l-7 7h-14z" />
<text x="1521" y="470" fill="black" stroke-width="0" dy="3.85">J_MIC3_Pin1</text>
</g>
<g stroke="black" stroke-width="3">
<path d="M1496 530v-7h14l7 7l-7 7h-14z" />
<text x="1521" y="530" fill="black" stroke-width="0" dy="3.85">led[11:0]</text>
</g>
<g stroke="black">
<path d="M1496 620v-7h14l7 7l-7 7h-14z" />
<text x="1521" y="620" fill="black" stroke-width="0" dy="3.85">J_MIC3_Pin4</text>
</g>
<g>
<path d="M1246 540h-140v60" />
</g>
<g stroke-width="2">
<path d="M866 200h-215" />
</g>
<g stroke="black">
<path d="M651 200l-5 5" />
</g>
<g>
<path d="M646 205v35" />
</g>
<g stroke-width="2">
<path d="M416 570h-215" />
</g>
<g stroke="black">
<path d="M201 570l-5 5" />
</g>
<g>
<path d="M196 575v35" />
<path d="M646 120v75" />
</g>
<g stroke="black">
<path d="M646 195l5 5" />
</g>
<g stroke-width="2">
<path d="M651 200h215" />
</g>
<g>
<path d="M196 490v75" />
</g>
<g stroke="black">
<path d="M196 565l5 5" />
</g>
<g stroke-width="2">
<path d="M201 570h215" />
</g>
<g stroke="green" stroke-width="3">
<path d="M1476 77v146" />
<path d="M1476 80h20" />
</g>
<g>
<path d="M1326 80h150" />
<path d="M1326 100h150" />
<path d="M1326 140h150" />
<path d="M1326 160h150" />
<path d="M1326 180h150" />
<path d="M1326 200h150" />
<path d="M1326 220h150" />
</g>
<g stroke="black" stroke-width="3">
<path d="M1477 75v10l-11 -5" stroke="none" fill="black" />
<path d="M1477 95v10l-11 -5" stroke="none" fill="black" />
<path d="M1477 135v10l-11 -5" stroke="none" fill="black" />
<path d="M1477 155v10l-11 -5" stroke="none" fill="black" />
<path d="M1477 175v10l-11 -5" stroke="none" fill="black" />
<path d="M1477 195v10l-11 -5" stroke="none" fill="black" />
<path d="M1477 215v10l-11 -5" stroke="none" fill="black" />
</g>
<g stroke="green" stroke-width="3">
<path d="M1306 530h190" />
<path d="M946 530h140v-10h160" />
<path d="M946 360h140v-220h160" />
<path d="M866 360h-220v-100h810v-140h-130" />
<path d="M156 367v83h470" />
<path d="M623 447h7v7h-7z" stroke="none" fill="green" />
<path d="M136 370h20" />
<path d="M626 337v253h645" />
<path d="M626 340h240" />
<path d="M626 380h240" />
</g>
<g>
<path d="M156 370h260" />
</g>
<g stroke="black">
<path d="M1271 590l5 -5" />
</g>
<g>
<path d="M1276 585v-25" />
<path d="M626 420h240" />
</g>
<g stroke="black" stroke-width="3">
<path d="M625 335v10l11 -5" stroke="none" fill="black" />
<path d="M625 375v10l11 -5" stroke="none" fill="black" />
<path d="M625 415v10l11 -5" stroke="none" fill="black" />
<path d="M155 365v10l11 -5" stroke="none" fill="black" />
</g>
<g stroke="green" stroke-width="3">
<path d="M496 370h90v30h280" />
</g>
<g>
<path d="M136 180h40v370h240" />
<path d="M176 180h430v330h260" />
<path d="M606 180h260" />
<path d="M606 320h260" />
<path d="M604 178h5v5h-5z" stroke="none" fill="#19b400" />
<path d="M604 318h5v5h-5z" stroke="none" fill="#19b400" />
<path d="M176 240h240" />
<path d="M176 350h240" />
<path d="M174 178h5v5h-5z" stroke="none" fill="#19b400" />
<path d="M174 238h5v5h-5z" stroke="none" fill="#19b400" />
<path d="M174 348h5v5h-5z" stroke="none" fill="#19b400" />
<path d="M946 510h120v-40h430" />
<path d="M136 470h450v60h280" />
<path d="M946 550h140v70h410" />
<path d="M136 60h730" />
<path d="M496 240h90v-160h280" />
<path d="M946 180h120v-60h180" />
<path d="M496 550h370" />
<path d="M946 60h160v100h140" />
<text x="1471" y="79" fill="black" stroke-width="0" font-size="8" text-anchor="end">0</text>
<text x="1471" y="99" fill="black" stroke-width="0" font-size="8" text-anchor="end">4</text>
<text x="1471" y="139" fill="black" stroke-width="0" font-size="8" text-anchor="end">7</text>
<text x="1471" y="159" fill="black" stroke-width="0" font-size="8" text-anchor="end">5</text>
<text x="1471" y="179" fill="black" stroke-width="0" font-size="8" text-anchor="end">3</text>
<text x="1471" y="199" fill="black" stroke-width="0" font-size="8" text-anchor="end">1</text>
<text x="1471" y="219" fill="black" stroke-width="0" font-size="8" text-anchor="end">6</text>
<text x="162" y="369" fill="black" stroke-width="0" font-size="8">4</text>
<text x="632" y="339" fill="black" stroke-width="0" font-size="8">6:5</text>
<text x="632" y="379" fill="black" stroke-width="0" font-size="8">2:1</text>
<text x="632" y="419" fill="black" stroke-width="0" font-size="8">3</text>
<text x="1271" y="589" fill="black" stroke-width="0" font-size="8" text-anchor="end">0</text>
</g>
</g>
</svg>
